<svg id="Tearfund_Logo_Blue" xmlns="http://www.w3.org/2000/svg" viewBox="0 0 174 56"><defs><style>.cls-1{fill:#008caa;}.cls-2{fill:#fff;}.cls-3{fill:none;}</style></defs><path class="cls-1" d="M173,38.2a21.15,21.15,0,0,1-.28-3c-.23-5.1-.93-8.6-.93-9.24,0-.94.22-1.89.67-5.25a2.31,2.31,0,0,0,0-.37V18.29c0-2.68-.52-6.06-.62-8-.05-1.08-.08-3.17-.08-3.17A5.86,5.86,0,0,0,166,1.28h-1.89c-1.1,0-1.76,0-2.73.07-2,0-4.1,0-6.84-.11l-.69-.05c-.61-.06-2-.19-2.69-.19-1.71,0-12.68,1-16.75,1.07-2.09.05-15.81-.51-21.62-.35-5.58.46-8,.14-10.53.21-2.33.06-2.38,0-4.71.06-.38,0-19.17.34-25,.52l-3,.08c-1.47-.14-5.73-.79-5.88-.81C62,1.55,56.73,1.43,47.21,1.7c-11.62.33-16.74-.07-26.73.22-1.4,0-5.81-.43-7-.39-.67,0-2-.24-2.64-.24H7.22A5.87,5.87,0,0,0,1.37,7.14V8.28h0l0,2.83c0,.27-.09.54-.11.82-.1,1.1-.1.74-.35,4-.14,1.75.24,9,.23,9.08,0,1.16-.23,7.57-.23,7.57a10.38,10.38,0,0,0,.24,2.53c0,.73.2,2.86.22,4L1.34,47v2a5.86,5.86,0,0,0,5.85,5.85H9c.75,0,1.72,0,3.15.06a12.11,12.11,0,0,0,2.17-.14c.35,0,.65-.11.86-.15a1.29,1.29,0,0,1,.44,0c3.56.29,5.5.43,6.43.42l70.41-.25a10.32,10.32,0,0,0,1.56-.24c2-.46,3.61-.71,4.24-.87.25-.07,6.06.69,8.09.69,6.36.29,10.17.57,10.17.57,1,0,3-.22,6.77-.57a1.39,1.39,0,0,1,.5,0c1,.21,4.25.54,4.44.54h8.61s17.79-.16,27.72-.2h2.47a5.86,5.86,0,0,0,5.84-5.85V48C173.08,44.15,173.12,39.69,173,38.2Z"/><path class="cls-2" d="M87.84,42.07a1,1,0,0,1-1-1V27.41H84.47a1,1,0,0,1-1-1.05V23.58a1,1,0,0,1,1-1h2.32V19.77a6.89,6.89,0,0,1,1-3.37c1.25-2,3.74-3.3,7.75-3.3a1,1,0,0,1,1.06,1v2.53a1.05,1.05,0,0,1-1.06,1.06,7,7,0,0,0-2.91.44c-.74.47-.89,1-.89,2.2v2.16h4.3a1,1,0,0,1,1,1v2.78a1.06,1.06,0,0,1-1.06,1.05H91.78V41a1.06,1.06,0,0,1-1.06,1Z"/><path class="cls-2" d="M114.86,42.27c-1.79,0-3-.37-3.62-1.78-1.1,1.31-3,1.78-5.39,1.78-4.34,0-6.51-2.88-6.51-8.57V23.4a1,1,0,0,1,1-1,3.91,3.91,0,0,1,3.93,4.06v7.39c0,2.82,1.08,4.19,3.31,4.19s3.29-1.37,3.29-4.31V23.58a1,1,0,0,1,1-1h2.89a1.05,1.05,0,0,1,1,1.06V41.24A1,1,0,0,1,114.86,42.27Z"/><path class="cls-2" d="M120.22,22.36c1.79,0,3,.37,3.62,1.79,1.1-1.32,3-1.79,5.39-1.79,4.34,0,6.51,2.88,6.51,8.57v10.3a1,1,0,0,1-1.05,1,3.9,3.9,0,0,1-3.93-4.05V30.83c0-2.82-1.09-4.19-3.31-4.19s-3.3,1.37-3.3,4.31V41.06a1,1,0,0,1-1,1h-2.89a1,1,0,0,1-1-1.05V23.4A1,1,0,0,1,120.22,22.36Z"/><path class="cls-2" d="M153.22,13.07a1.06,1.06,0,0,0-1.08,1V24.26a7.57,7.57,0,0,0-5.26-1.92c-5.07,0-8.22,3.81-8.22,9.94s3.23,10,8.41,10c2.94,0,4.58-.79,5.39-1.78.64,1.61,2.19,1.78,3.62,1.78a1,1,0,0,0,1-1V16.89A3.92,3.92,0,0,0,153.22,13.07Zm-1.08,22.38a4.1,4.1,0,0,1-4,2.48c-3.52,0-4.44-3.64-4.44-5.57,0-3.51,2.25-5.61,4.44-5.61a4.09,4.09,0,0,1,4,2.52Z"/><path class="cls-2" d="M40.4,42.27c-6.21,0-9.91-3.6-9.91-9.63,0-6.65,3.15-10.3,8.88-10.3A8.44,8.44,0,0,1,46,25a9.17,9.17,0,0,1,2.05,6c0,1.46-.2,3-2.56,3h-10a4.23,4.23,0,0,0,1.12,2.72,5.34,5.34,0,0,0,4,1.35,11.75,11.75,0,0,0,4.75-.93.8.8,0,0,1,.75.07.85.85,0,0,1,.37.71,3.65,3.65,0,0,1-1.14,2.57A6.79,6.79,0,0,1,40.4,42.27ZM39.22,26.59c-3.67,0-3.73,3.88-3.73,3.88H43S42.89,26.59,39.22,26.59Z"/><path class="cls-2" d="M70.77,42.09A1.05,1.05,0,0,1,69.71,41V23.4a1,1,0,0,1,1.05-1,4,4,0,0,1,3.66,2.47,3.09,3.09,0,0,1,3.33-2.47c3.08,0,3.48,2.05,3.48,3.84,0,.62-.1.93-.62.93a18.49,18.49,0,0,0-1.89-.24c-2.78,0-4,1-4,7.06V41a1,1,0,0,1-1,1.05Z"/><path class="cls-2" d="M65.5,42.27c-2.06,0-3.09-.49-3.62-1.78-.93,1.14-2.72,1.8-5.39,1.78-4.18,0-6.64-2.49-6.64-6.67,0-4,2.46-6.38,6.42-6.4,3.66,0,5,1.22,5.29,1.44,0-.31.26-3.75-4.1-4.25a8.3,8.3,0,0,0-3.14.19,8.16,8.16,0,0,1-1.67.49c-.65,0-.8-.49-.79-1.14,0-2.62,2.23-3.63,5.8-3.59,5.53,0,8.77,2.85,8.88,7.83V41.24A1,1,0,0,1,65.5,42.27Zm-7.31-9.75c-2.62,0-3.23,1.63-3.28,3,.06,2.76,2.81,2.9,3.36,2.9,2.23,0,3.29-1.42,3.29-1.77V33.73C61.56,33.44,60.16,32.52,58.19,32.52Z"/><path class="cls-2" d="M29.17,20.39h-4.3V14.12a1.06,1.06,0,0,0-1.08-1,3.92,3.92,0,0,0-3.91,3.82v3.5h-4.3a1,1,0,0,0-1.05,1v2.78a1,1,0,0,0,1.05,1.05h4.3v13.2a3.91,3.91,0,0,0,3.91,3.81,1.06,1.06,0,0,0,1.08-1.05v-16h4.29a1.05,1.05,0,0,0,1.06-1.05V21.43A1,1,0,0,0,29.17,20.39Z"/><rect class="cls-3" width="174" height="56"/></svg>